<svg id="Layer_1" data-name="Layer 1" xmlns="http://www.w3.org/2000/svg" viewBox="0 0 1501.81 613.44"><defs><style>.cls-1,.cls-2{fill:#e08700;}.cls-2{font-size:85.39px;font-family:Ubuntu-Bold, Ubuntu;font-weight:700;}.cls-3{letter-spacing:-0.02em;}.cls-4{letter-spacing:-0.08em;}.cls-5{letter-spacing:0em;}.cls-6{letter-spacing:-0.02em;}.cls-7{letter-spacing:0em;}.cls-8{letter-spacing:-0.01em;}</style></defs><path class="cls-1" d="M858.52,348c0,5.22-1.79,6.76-6.89,6.74q-42.61-.27-85.22-.25v-29a10.41,10.41,0,0,0,1.52.07q27.77-.28,55.52,0c4.39,0,5.77-1.55,5.75-5.86q-.21-52.29-.08-104.56a8.08,8.08,0,0,0-3.83-7.34c-5.62-4-11.16-8-16.73-12.09-1.1-.81-2.17-2.23-3.56-1.74-1.92.67-1.21,2.69-1.22,4.15,0,11.81,1,69.94,1.39,92.77a5,5,0,0,1-7.64,4.29c-16.41-10.38-54.48-34.65-73.37-47.94-2.67-1.88-5.44-3.65-8.21-5.5-1.77,2.43-1.11,4.65-1.11,6.71q-.17,49-.23,98.07c0,7.88-.07,7.9-7.84,7.89q-36.33,0-72.65-.12c-8.08,0-8.54-.27-8.57-8.18-.23-48.65-.3-97.28-.48-145.93a9.74,9.74,0,0,1,3.13-7.3q50.29-50.33,100.55-100.7l.11-.13v41.9c-16,16-60.5,60.47-70,69.79A13.25,13.25,0,0,0,654.52,214c.1,34.67.1,69.33-.19,104-.06,6,1.77,7.43,7.73,7.64,5.09.18,10.79.12,15.93,0,5.65-.19,7.56-1.66,7.49-7.37-.3-25.2-.22-50.41-.27-75.61,0-17.33-.07-34.67,0-52,0-1.69-.75-3.95,1.11-4.86s3.14,1.09,4.52,2.06q38.63,27.18,77.27,54.34c1.53,1.08,3.06,3.34,5,2.48,2.49-1.07,1.28-3.86,1.28-5.86q0-48.15-.12-96.29v-7.13c6.7,2.83,11.28,7.11,16.26,10.69,21.25,15.27,42.3,30.8,63.59,46,3.52,2.51,4.63,5.29,4.62,9.37Q858.49,274.72,858.52,348Z"/><text class="cls-2" transform="translate(291.65 456.83)">NE<tspan class="cls-3" x="116.3" y="0">S</tspan><tspan class="cls-4" x="164.29" y="0">TA</tspan><tspan class="cls-5" x="264.28" y="0">TE P</tspan><tspan class="cls-6" x="443.94" y="0">R</tspan><tspan class="cls-7" x="499.36" y="0">OPE</tspan><tspan class="cls-8" x="673.55" y="0">R</tspan><tspan class="cls-7" x="729.65" y="0">TIES</tspan></text></svg>